<?xml version="1.0" encoding="utf-8"?>
<!-- Generator: Adobe Illustrator 21.1.0, SVG Export Plug-In . SVG Version: 6.00 Build 0)  -->
<svg version="1.1" id="Layer_1" xmlns="http://www.w3.org/2000/svg" xmlns:xlink="http://www.w3.org/1999/xlink" x="0px" y="0px"
	 width="31px" height="23.8px" viewBox="0 0 31 23.8" style="enable-background:new 0 0 31 23.8;" xml:space="preserve">
<style type="text/css">
	.st0{fill:#FFFFFF;}
</style>
<g>
	<g>
		<path class="st0" d="M0.4,13.1C0.1,12.9,0,12.5,0,12.3c0-0.2,0.1-0.6,0.4-0.8L2,9.8c0.5-0.5,1.2-0.5,1.7,0l0.1,0.1l6.6,7
			c0.2,0.2,0.6,0.2,0.8,0l16-16.6h0.1c0.5-0.5,1.2-0.5,1.7,0L30.6,2c0.5,0.5,0.5,1.2,0,1.7L11.6,23.5c-0.2,0.2-0.5,0.4-0.8,0.4
			c-0.4,0-0.6-0.1-0.8-0.4l-9.3-10L0.4,13.1z M0.4,13.1"/>
	</g>
</g>
</svg>
