<?xml version="1.0" encoding="utf-8"?>
<!-- Generator: Adobe Illustrator 21.1.0, SVG Export Plug-In . SVG Version: 6.00 Build 0)  -->
<svg version="1.1" id="Capa_1" xmlns="http://www.w3.org/2000/svg" xmlns:xlink="http://www.w3.org/1999/xlink" x="0px" y="0px"
	 width="20px" height="22.3px" viewBox="197 385.8 20 22.3" style="enable-background:new 197 385.8 20 22.3;" xml:space="preserve"
	>
<style type="text/css">
	.st0{fill:#F15E53;}
</style>
<path class="st0" d="M204.3,407.3c0,0.5-0.4,0.9-0.9,0.9h-2.9c-1.9,0-3.5-1.6-3.5-3.5v-15.3c0-1.9,1.6-3.5,3.5-3.5h10.7
	c1.9,0,3.5,1.6,3.5,3.5v5.4c0,0.5-0.4,0.9-0.9,0.9c-0.5,0-0.9-0.4-0.9-0.9v-5.4c0-1-0.8-1.7-1.7-1.7h-10.7c-1,0-1.7,0.8-1.7,1.7
	v15.3c0,1,0.8,1.7,1.7,1.7h2.9C203.9,406.4,204.3,406.8,204.3,407.3z M210.3,391.1h-9c-0.5,0-0.9,0.4-0.9,0.9c0,0.5,0.4,0.9,0.9,0.9
	h9c0.5,0,0.9-0.4,0.9-0.9C211.2,391.5,210.8,391.1,210.3,391.1z M211.2,395.4c0-0.5-0.4-0.9-0.9-0.9h-9c-0.5,0-0.9,0.4-0.9,0.9
	c0,0.5,0.4,0.9,0.9,0.9h9C210.8,396.3,211.2,395.9,211.2,395.4z M201.4,398c-0.5,0-0.9,0.4-0.9,0.9s0.4,0.9,0.9,0.9h5.5
	c0.5,0,0.9-0.4,0.9-0.9s-0.4-0.9-0.9-0.9H201.4z M216.2,402.2l-4.8,4.8c-0.1,0.1-0.2,0.2-0.4,0.2l-3.5,1c-0.1,0-0.2,0-0.2,0
	c-0.2,0-0.5-0.1-0.6-0.3c-0.2-0.2-0.3-0.6-0.2-0.9l1-3.4c0-0.1,0.1-0.3,0.2-0.4l4.8-4.8c1-1,2.7-1,3.7,0
	C217.3,399.5,217.3,401.1,216.2,402.2z M213.6,402.3l-1.2-1.2l-3.2,3.2l-0.5,1.7l1.8-0.5L213.6,402.3z M215,399.7
	c-0.3-0.3-0.9-0.3-1.2,0l-0.2,0.2l1.2,1.2l0.2-0.2C215.3,400.6,215.3,400,215,399.7z"/>
</svg>
