<?xml version="1.0" encoding="utf-8"?>
<!-- Generator: Adobe Illustrator 21.1.0, SVG Export Plug-In . SVG Version: 6.00 Build 0)  -->
<svg version="1.1" id="Layer_1" xmlns="http://www.w3.org/2000/svg" xmlns:xlink="http://www.w3.org/1999/xlink" x="0px" y="0px"
	 width="133px" height="87.1px" viewBox="0 0 133 87.1" style="enable-background:new 0 0 133 87.1;" xml:space="preserve">
<style type="text/css">
	.st0{fill:#D6D6D6;}
	.st1{fill:#F7F7F7;}
	.st2{fill:#EFEFEF;}
	.st3{fill:#CACACA;}
	.st4{fill:#ADADAD;}
</style>
<path class="st0" d="M9.2,87.1h114.7c5.1,0,9.2-4.1,9.2-9.2v-4.6H84.8L80.3,78H52.7l-4.6-4.6H0V78C0,83,4.1,87.1,9.2,87.1L9.2,87.1z
	 M9.2,87.1"/>
<path class="st1" d="M52.7,78h27.5l4.6-4.6h43.6V0H4.6v73.4h43.6L52.7,78z M11.5,6.9h110.1H11.5z M84.8,36.7
	c0,10.1-8.2,18.3-18.3,18.3c-10.1,0-18.3-8.2-18.3-18.3c0-10.1,8.2-18.3,18.3-18.3C76.6,18.3,84.8,26.6,84.8,36.7L84.8,36.7z
	 M11.5,43.6v22.9h110.1H11.5V43.6z M11.5,43.6"/>
<path class="st2" d="M13.8,29.8H9.2V4.6h114.7v25.1h-4.6V9.2H13.8V29.8z M13.8,29.8"/>
<path class="st2" d="M123.8,68.8H9.2V43.6h4.6v20.6h105.5V43.6h4.6V68.8z M123.8,68.8"/>
<rect x="100.9" y="34.4" class="st3" width="4.6" height="4.6"/>
<rect x="110.1" y="34.4" class="st3" width="4.6" height="4.6"/>
<rect x="119.2" y="34.4" class="st3" width="4.6" height="4.6"/>
<rect x="91.7" y="34.4" class="st3" width="4.6" height="4.6"/>
<rect x="27.5" y="34.4" class="st3" width="4.6" height="4.6"/>
<rect x="18.3" y="34.4" class="st3" width="4.6" height="4.6"/>
<rect x="9.2" y="34.4" class="st3" width="4.6" height="4.6"/>
<rect x="36.7" y="34.4" class="st3" width="4.6" height="4.6"/>
<circle class="st1" cx="66" cy="35.3" r="20.9"/>
<g>
	<path class="st4" d="M56.3,25.2V48h-4V25.2H56.3z"/>
	<path class="st4" d="M73.5,25.2c1.3,0,2.4,0.2,3.3,0.6s1.7,0.9,2.3,1.5c0.6,0.6,1,1.3,1.3,2.2c0.3,0.8,0.4,1.7,0.4,2.6
		c0,0.9-0.1,1.7-0.4,2.6c-0.3,0.9-0.7,1.6-1.3,2.3c-0.6,0.7-1.3,1.2-2.3,1.7c-0.9,0.4-2.1,0.6-3.4,0.6h-7.1c-0.4,0-0.6,0.2-0.6,0.6
		v8.2h-4v-9c0-1.3,0.3-2.2,0.8-2.8c0.6-0.6,1.5-0.8,2.7-0.8h8.2c0.6,0,1-0.1,1.5-0.3c0.4-0.2,0.7-0.4,1-0.7c0.2-0.3,0.4-0.6,0.6-1
		c0.1-0.4,0.2-0.8,0.2-1.2c0-0.8-0.3-1.5-0.8-2.1s-1.3-0.9-2.4-0.9H61.8v-4L73.5,25.2L73.5,25.2z"/>
</g>
</svg>
