<?xml version="1.0" encoding="utf-8"?>
<!-- Generator: Adobe Illustrator 21.1.0, SVG Export Plug-In . SVG Version: 6.00 Build 0)  -->
<svg version="1.1" id="Layer_1" xmlns="http://www.w3.org/2000/svg" xmlns:xlink="http://www.w3.org/1999/xlink" x="0px" y="0px"
	 width="105px" height="121.1px" viewBox="0 0 105 121.1" style="enable-background:new 0 0 105 121.1;" xml:space="preserve">
<style type="text/css">
	.st0{fill:#E3E3E3;}
	.st1{fill:#FFFFFF;}
	.st2{fill:#D7D7D7;}
	.st3{fill:#F8F8F8;}
</style>
<g>
	<path class="st0" d="M67.7,48.8c1.3,7.8,1.3,15.7,0,23.5c5.1,1,9.9,3.1,14.2,6.1c6.7-11,6.7-24.7,0-35.7
		C77.6,45.7,72.7,47.8,67.7,48.8L67.7,48.8z M67.7,48.8"/>
	<path class="st0" d="M37.3,72.3c-1.3-7.8-1.3-15.7,0-23.5c-5.1-1-9.9-3.1-14.2-6.1c-6.7,11-6.7,24.7,0,35.7
		C27.4,75.4,32.2,73.4,37.3,72.3L37.3,72.3z M37.3,72.3"/>
	<path class="st0" d="M56.5,6.1c0,2.2-1.8,4-4,4c-2.2,0-4-1.8-4-4s1.8-4,4-4C54.7,2,56.5,3.8,56.5,6.1L56.5,6.1z M56.5,6.1"/>
	<path class="st0" d="M37.3,72.3c10-2.2,20.3-2.2,30.3,0c1.3-7.8,1.3-15.7,0-23.5c-5,1.1-10.1,1.7-15.2,1.7
		c-5.1,0-10.2-0.5-15.2-1.7C36,56.6,36,64.6,37.3,72.3L37.3,72.3z M37.3,72.3"/>
	<path class="st0" d="M67.7,48.8c5.1-1,9.9-3.1,14.2-6.1c-6.2-10.2-17.3-16.5-29.3-16.5C59.5,26.2,65.4,35.7,67.7,48.8L67.7,48.8z
		 M67.7,48.8"/>
	<path class="st0" d="M23.2,42.7c4.2,3,9.1,5.1,14.2,6.1c2.3-13.1,8.2-22.6,15.2-22.6C40.5,26.2,29.4,32.5,23.2,42.7L23.2,42.7z
		 M23.2,42.7"/>
	<path class="st0" d="M37.3,48.8c5,1.1,10.1,1.7,15.2,1.7c5.1,0,10.2-0.5,15.2-1.7c-2.3-13.1-8.2-22.6-15.2-22.6
		C45.5,26.2,39.6,35.7,37.3,48.8L37.3,48.8z M37.3,48.8"/>
	<path class="st0" d="M67.7,72.3c-2.3,13.1-8.2,22.6-15.2,22.6c12,0,23.1-6.2,29.3-16.5C77.6,75.4,72.8,73.3,67.7,72.3L67.7,72.3z
		 M67.7,72.3"/>
	<path class="st0" d="M37.3,72.3c-5.1,1-9.9,3.1-14.2,6.1c6.2,10.2,17.3,16.5,29.3,16.5C45.5,94.9,39.6,85.5,37.3,72.3L37.3,72.3z
		 M37.3,72.3"/>
	<path class="st0" d="M67.7,72.3c-10-2.2-20.3-2.2-30.3,0c2.3,13.1,8.2,22.6,15.2,22.6C59.5,94.9,65.4,85.5,67.7,72.3L67.7,72.3z
		 M67.7,72.3"/>
	<path class="st1" d="M4,37.8c1.9,1.1,4.4,0.5,5.5-1.5c0.1-0.1,0.1-0.3,0.2-0.4l-1-0.6l1,0.6c0.8-2,0-4.3-2-5.2
		c-2-0.9-4.3-0.1-5.3,1.8C1.5,34.4,2.2,36.7,4,37.8L4,37.8z M4,37.8"/>
	<path class="st1" d="M8.1,92.3c1.9-1.1,2.6-3.6,1.5-5.5C8.4,84.9,6,84.2,4,85.3c-1.9,1.1-2.6,3.6-1.5,5.5
		C3.7,92.8,6.1,93.5,8.1,92.3L8.1,92.3z M8.1,92.3"/>
	<path class="st1" d="M56.5,115.1c0,2.2-1.8,4-4,4c-2.2,0-4-1.8-4-4c0-2.2,1.8-4,4-4C54.7,111.1,56.5,112.9,56.5,115.1L56.5,115.1z
		 M56.5,115.1"/>
	<path class="st1" d="M96.9,92.3c1.9,1.1,4.4,0.5,5.5-1.5c1.1-1.9,0.5-4.4-1.5-5.5c-1.9-1.1-4.4-0.5-5.5,1.5
		C94.3,88.8,95,91.2,96.9,92.3L96.9,92.3z M96.9,92.3"/>
	<path class="st1" d="M95.2,35.9l1-0.6L95.2,35.9c0.1,0.2,0.1,0.3,0.2,0.4c1.1,2,3.5,2.8,5.6,1.8c2.1-1,2.9-3.4,2-5.5
		c-0.9-2.1-3.4-3-5.5-2.2C95.4,31.4,94.4,33.8,95.2,35.9L95.2,35.9z M95.2,35.9"/>
	<rect x="50.5" y="10.1" class="st2" width="4" height="16.2"/>
	<path class="st2" d="M7.8,37.1l2-3.5l14,8.1l-2,3.5L7.8,37.1z M7.8,37.1"/>
	<rect x="50.5" y="94.9" class="st2" width="4" height="16.2"/>
	<path class="st2" d="M52.5,96.9c-10.2,0-18.2-16-18.2-36.3s8-36.3,18.2-36.3s18.2,16,18.2,36.3S62.7,96.9,52.5,96.9L52.5,96.9z
		 M52.5,28.3c-6.8,0-14.1,13-14.1,32.3s7.3,32.3,14.1,32.3c6.8,0,14.1-13,14.1-32.3S59.3,28.3,52.5,28.3L52.5,28.3z M52.5,28.3"/>
	<path class="st2" d="M52.5,52.5c-5.3,0-10.5-0.6-15.6-1.7c-5.4-1.1-10.5-3.3-14.9-6.4l-1.4-1.1l0.9-1.5c6.6-10.8,18.4-17.4,31-17.4
		c12.7,0,24.4,6.6,31,17.4l0.9,1.5L83,44.3c-4.5,3.2-9.6,5.4-14.9,6.4C63,51.9,57.7,52.5,52.5,52.5L52.5,52.5z M25.9,42.2
		c3.7,2.2,7.7,3.8,11.9,4.6c4.8,1.1,9.8,1.6,14.7,1.6c4.9,0,9.9-0.5,14.7-1.6c4.2-0.9,8.2-2.4,11.9-4.6c-6-8.7-16-13.9-26.6-13.9
		C41.9,28.3,32,33.5,25.9,42.2L25.9,42.2z M25.9,42.2"/>
	<path class="st2" d="M52.5,96.9C39.8,97,28,90.3,21.4,79.5l-0.9-1.5l1.4-1.1c4.5-3.2,9.6-5.4,14.9-6.4c5.1-1.2,10.4-1.8,15.6-1.7
		c5.3,0,10.5,0.6,15.6,1.7c5.4,1.1,10.5,3.3,14.9,6.4l1.4,1.1l-0.9,1.5C77,90.3,65.2,97,52.5,96.9L52.5,96.9z M25.9,78.9
		c6,8.7,16,13.9,26.6,13.9c10.6,0,20.5-5.2,26.6-13.9c-3.7-2.2-7.7-3.8-11.9-4.6c-9.7-2.2-19.7-2.2-29.4,0
		C33.6,75.2,29.6,76.7,25.9,78.9L25.9,78.9z M25.9,78.9"/>
	<path class="st2" d="M7.8,84.1l14-8.1l2,3.5l-14,8.1L7.8,84.1z M7.8,84.1"/>
	<path class="st2" d="M81.2,79.5l2-3.5l14,8.1l-2,3.5L81.2,79.5z M81.2,79.5"/>
	<path class="st2" d="M81.2,41.7l14-8.1l2,3.5l-14,8.1L81.2,41.7z M81.2,41.7"/>
	<path class="st3" d="M46.6,12l-2.1-3.5L48,6.4l2.1,3.5L46.6,12z M12.1,33L10,29.5l3.5-2.1l2.1,3.4L12.1,33z M19,28.8l-2.1-3.5
		l3.5-2.1l2.1,3.5L19,28.8z M25.9,24.6l-2.1-3.5l3.5-2.1l2.1,3.5L25.9,24.6z M32.8,20.4l-2.1-3.5l3.5-2.1l2.1,3.5L32.8,20.4z
		 M39.7,16.2l-2.1-3.5l3.4-2.1l2.1,3.5L39.7,16.2z M39.7,16.2"/>
	<path class="st3" d="M8.1,84.8H4v-4h4V84.8z M8.1,76.7H4v-4h4V76.7z M8.1,68.6H4v-4h4V68.6z M8.1,60.6H4v-4h4V60.6z M8.1,52.5H4v-4
		h4V52.5z M8.1,44.4H4v-4h4V44.4z M8.1,44.4"/>
	<path class="st3" d="M48,114.9l-3.5-2l2-3.5l3.5,2L48,114.9z M41,110.9l-3.5-2l2-3.5l3.5,2L41,110.9z M33.9,106.9l-3.5-2l2-3.5
		l3.5,2L33.9,106.9z M26.9,102.9l-3.5-2l2-3.5l3.5,2L26.9,102.9z M19.9,99l-3.5-2l2-3.5l3.5,2L19.9,99z M12.8,95l-3.5-2l2-3.5l3.5,2
		L12.8,95z M12.8,95"/>
	<path class="st3" d="M57.7,114.4l-2-3.5l3.5-2l2,3.5L57.7,114.4z M64.8,110.5l-2-3.5l3.5-2l2,3.5L64.8,110.5z M71.8,106.5l-2-3.5
		l3.5-2l2,3.5L71.8,106.5z M78.8,102.5l-2-3.5l3.5-2l2,3.5L78.8,102.5z M85.9,98.5l-2-3.5l3.5-2l2,3.5L85.9,98.5z M92.9,94.6l-2-3.5
		l3.5-2l2,3.5L92.9,94.6z M92.9,94.6"/>
	<path class="st3" d="M101,84.8h-4v-4h4V84.8z M101,76.7h-4v-4h4V76.7z M101,68.6h-4v-4h4V68.6z M101,60.6h-4v-4h4V60.6z M101,52.5
		h-4v-4h4V52.5z M101,44.4h-4v-4h4V44.4z M101,44.4"/>
	<path class="st3" d="M94.5,33.9L91,31.9l2.1-3.5l3.5,2.1L94.5,33.9z M87.6,29.8l-3.5-2.1l2.1-3.5l3.4,2.1L87.6,29.8z M80.6,25.6
		l-3.4-2.1l2.1-3.5l3.4,2.1L80.6,25.6z M73.8,21.4l-3.4-2.1l2.1-3.5l3.4,2.1L73.8,21.4z M66.9,17.2l-3.5-2.1l2.1-3.5l3.4,2.1
		L66.9,17.2z M60,13l-3.5-2.1l2.1-3.5l3.5,2.1L60,13z M60,13"/>
	<g>
		<path class="st2" d="M52.5,4c-1.1,0-2,0.9-2,2s0.9,2,2,2s2-0.9,2-2S53.6,4,52.5,4L52.5,4z M52.5,12.1c-3.3,0-6.1-2.7-6.1-6.1
			c0-3.3,2.7-6.1,6.1-6.1c3.3,0,6.1,2.7,6.1,6.1C58.6,9.4,55.8,12.1,52.5,12.1L52.5,12.1z M52.5,12.1"/>
		<path class="st2" d="M98.9,32.3c-0.9,0-1.7,0.6-1.9,1.5c-0.2,0.9,0.2,1.8,0.9,2.3c0.8,0.5,1.8,0.3,2.4-0.3
			c0.6-0.6,0.8-1.6,0.3-2.4C100.3,32.7,99.7,32.3,98.9,32.3L98.9,32.3z M98.9,40.4c-3,0-5.6-2.2-6-5.3c-0.4-3,1.5-5.9,4.4-6.6
			c2.9-0.8,6,0.7,7.2,3.5c1.2,2.8,0.1,6-2.6,7.6C101,40.1,100,40.4,98.9,40.4L98.9,40.4z M98.9,40.4"/>
		<path class="st2" d="M98.9,94.9c-2.7,0-5.1-1.8-5.8-4.5c-0.7-2.6,0.4-5.4,2.8-6.8c2.4-1.4,5.4-1,7.3,1c1.9,1.9,2.3,4.9,1,7.3
			C103.1,93.7,101.1,94.9,98.9,94.9L98.9,94.9z M98.9,86.8c-1,0-1.9,0.8-2,1.8c-0.1,1,0.5,2,1.5,2.2c1,0.3,2-0.2,2.4-1.2
			c0.4-0.9,0-2-0.9-2.5C99.6,86.9,99.3,86.8,98.9,86.8L98.9,86.8z M98.9,86.8"/>
		<path class="st2" d="M52.5,121.1c-3.3,0-6.1-2.7-6.1-6.1c0-3.3,2.7-6.1,6.1-6.1c3.3,0,6.1,2.7,6.1,6.1
			C58.6,118.4,55.8,121.1,52.5,121.1L52.5,121.1z M52.5,113.1c-1.1,0-2,0.9-2,2c0,1.1,0.9,2,2,2s2-0.9,2-2
			C54.5,114,53.6,113.1,52.5,113.1L52.5,113.1z M52.5,113.1"/>
		<path class="st2" d="M6.1,94.9c-3,0-5.6-2.2-6-5.3c-0.4-3,1.5-5.9,4.4-6.6c2.9-0.8,6,0.7,7.2,3.5c1.2,2.8,0.1,6-2.6,7.6
			C8.2,94.6,7.1,94.9,6.1,94.9L6.1,94.9z M6.1,86.8c-0.9,0-1.7,0.6-1.9,1.5c-0.2,0.9,0.2,1.8,0.9,2.3c0.8,0.5,1.8,0.3,2.4-0.3
			c0.6-0.6,0.8-1.6,0.3-2.4C7.4,87.2,6.8,86.8,6.1,86.8L6.1,86.8z M6.1,86.8"/>
		<path class="st2" d="M6.1,40.4c-2.7,0-5.1-1.8-5.8-4.5c-0.7-2.6,0.4-5.4,2.8-6.8c2.4-1.4,5.4-1,7.3,1c1.9,1.9,2.3,4.9,1,7.3
			C10.2,39.2,8.2,40.4,6.1,40.4L6.1,40.4z M6.1,32.3c-1,0-1.9,0.8-2,1.8c-0.1,1,0.5,2,1.5,2.2c1,0.3,2-0.2,2.4-1.2
			c0.4-0.9,0-2-0.9-2.5C6.8,32.4,6.4,32.3,6.1,32.3L6.1,32.3z M6.1,32.3"/>
	</g>
	<path class="st2" d="M52.5,96.9c-16.5,0-31-11.2-35.2-27.1c-4.2-16,2.9-32.8,17.4-40.9c14.4-8.1,32.5-5.5,43.9,6.4
		c11.5,11.9,13.5,30,4.9,44.1C77,90.3,65.2,97,52.5,96.9L52.5,96.9z M52.5,28.3c-14.7,0-27.5,9.9-31.3,24.1
		c-3.7,14.2,2.6,29.1,15.4,36.3c12.8,7.2,28.9,4.8,39.1-5.7c10.2-10.6,12-26.7,4.4-39.2C74.3,34.1,63.8,28.2,52.5,28.3L52.5,28.3z
		 M52.5,28.3"/>
</g>
</svg>
