<?xml version="1.0" encoding="utf-8"?>
<!-- Generator: Adobe Illustrator 21.1.0, SVG Export Plug-In . SVG Version: 6.00 Build 0)  -->
<svg version="1.1" id="Layer_1" xmlns="http://www.w3.org/2000/svg" xmlns:xlink="http://www.w3.org/1999/xlink" x="0px" y="0px"
	 width="100px" height="100px" viewBox="0 0 100 100" style="enable-background:new 0 0 100 100;" xml:space="preserve">
<style type="text/css">
	.st0{fill:#F1F1F1;}
	.st1{fill:#57A3FF;}
	.st2{fill:#DDDDDD;}
	.st3{fill:#CACACA;}
</style>
<g>
	<g>
		<rect x="0" y="89.6" class="st0" width="27.6" height="10.3"/>
		<path class="st0" d="M63.8,89.6H36.2V100h27.6L63.8,89.6L63.8,89.6z M63.8,89.6"/>
		<rect x="72.4" y="89.6" class="st0" width="27.6" height="10.3"/>
	</g>
	<rect x="0" y="74.1" class="st0" width="27.6" height="10.3"/>
	<rect x="36.2" y="74.1" class="st0" width="27.6" height="10.3"/>
	<g>
		<rect x="72.4" y="74.1" class="st0" width="27.6" height="10.3"/>
		<path class="st1" d="M100,37.9c0-6.3-4.3-11.8-10.4-13.4c-0.7-7.1-6.6-12.5-13.7-12.5c-2.7,0-5.3,0.8-7.5,2.2
			C65.8,4.1,55.5-2,45.3,0.6c-6.7,1.7-12,7-13.7,13.7c-2.2-1.5-4.8-2.2-7.5-2.2c-7.1,0-13,5.4-13.7,12.5c-7.4,1.9-11.9,9.3-10,16.7
			C2,47.4,7.5,51.7,13.8,51.7h72.4C93.8,51.7,100,45.5,100,37.9L100,37.9z M100,37.9"/>
		<path class="st2" d="M100,37.9c0-6.3-4.3-11.8-10.4-13.4c-0.7-7.1-6.6-12.5-13.7-12.5c-2.7,0-5.3,0.8-7.5,2.2
			C65.8,4.1,55.5-2,45.3,0.6c-6.7,1.7-12,7-13.7,13.7c-2.2-1.5-4.8-2.2-7.5-2.2c-7.1,0-13,5.4-13.7,12.5c-7.4,1.9-11.9,9.3-10,16.7
			C2,47.4,7.5,51.7,13.8,51.7h72.4C93.8,51.7,100,45.5,100,37.9L100,37.9z M100,37.9"/>
	</g>
	<rect x="48.3" y="51.7" class="st3" width="3.5" height="22.4"/>
	<path class="st3" d="M87.9,74.1h-3.5v-8.6H13.8v8.6h-3.5V62h77.6V74.1z M87.9,74.1"/>
	<rect x="3.5" y="77.6" class="st3" width="3.5" height="3.5"/>
	<rect x="3.5" y="93.1" class="st3" width="3.5" height="3.5"/>
	<rect x="39.7" y="77.6" class="st3" width="3.5" height="3.5"/>
	<rect x="75.9" y="77.6" class="st3" width="3.5" height="3.5"/>
	<rect x="75.9" y="93.1" class="st3" width="3.5" height="3.5"/>
	<rect x="39.7" y="93.1" class="st3" width="3.5" height="3.5"/>
	<rect x="48.3" y="44.8" class="st3" width="3.5" height="3.5"/>
	<rect x="55.2" y="44.8" class="st3" width="3.5" height="3.5"/>
	<rect x="62.1" y="44.8" class="st3" width="3.5" height="3.5"/>
	<rect x="69" y="44.8" class="st3" width="3.5" height="3.5"/>
	<rect x="75.9" y="44.8" class="st3" width="3.5" height="3.5"/>
	<rect x="82.8" y="44.8" class="st3" width="3.5" height="3.5"/>
	<rect x="41.4" y="44.8" class="st3" width="3.5" height="3.5"/>
	<rect x="34.5" y="44.8" class="st3" width="3.5" height="3.5"/>
	<rect x="27.6" y="44.8" class="st3" width="3.5" height="3.5"/>
	<rect x="20.7" y="44.8" class="st3" width="3.5" height="3.5"/>
	<rect x="13.8" y="44.8" class="st3" width="3.5" height="3.5"/>
</g>
</svg>
