<?xml version="1.0" encoding="utf-8"?>
<!-- Generator: Adobe Illustrator 21.1.0, SVG Export Plug-In . SVG Version: 6.00 Build 0)  -->
<svg version="1.1" id="Layer_1" xmlns="http://www.w3.org/2000/svg" xmlns:xlink="http://www.w3.org/1999/xlink" x="0px" y="0px"
	 width="28px" height="28px" viewBox="0 0 28 28" style="enable-background:new 0 0 28 28;" xml:space="preserve">
<style type="text/css">
	.st0{fill:#FFFFFF;}
	.st1{fill:#F15F54;}
</style>
<g>
	<circle class="st0" cx="14" cy="14" r="14"/>
	<g>
		<path class="st1" d="M14,0C6.3,0,0,6.3,0,14c0,7.7,6.3,14,14,14c7.7,0,14-6.3,14-14C28,6.3,21.7,0,14,0L14,0z M21,19l-2,2l-5-5
			l-5,5l-2-2l5-5L7,9l2-2l5,5l5-5l2,2l-5,5L21,19z M21,19"/>
	</g>
</g>
</svg>
