<?xml version="1.0" encoding="utf-8"?>
<!-- Generator: Adobe Illustrator 21.1.0, SVG Export Plug-In . SVG Version: 6.00 Build 0)  -->
<svg version="1.1" id="Layer_1" xmlns="http://www.w3.org/2000/svg" xmlns:xlink="http://www.w3.org/1999/xlink" x="0px" y="0px"
	 width="103px" height="74.8px" viewBox="155.5 359.6 103 74.8" style="enable-background:new 155.5 359.6 103 74.8;"
	 xml:space="preserve">
<style type="text/css">
	.st0{fill:#C4C4C4;}
	.st1{fill:#C8C8C8;}
	.st2{fill:#E8E8E8;}
	.st3{fill:#E3E3E3;}
	.st4{fill:#F4F4F4;}
	.st5{fill:#EDEDED;}
	.st6{fill:#F0F0F0;}
	.st7{fill:#DFDFDF;}
	.st8{fill:#C7CFE2;}
	.st9{fill:#D9D9D9;}
	.st10{fill:#D3D3D3;}
	.st11{fill:#CBCBCB;}
	.st12{fill:#D0D0D0;}
</style>
<path class="st0" d="M230.3,391.2v1.2c0,1.4,0.2,2.8,0.7,4.2l2.6,7.9h5v-18.3h-3.3C232.5,386.2,230.3,388.4,230.3,391.2z"/>
<path class="st1" d="M253,394.6l-2.8,9.8l-13.3-11.6c-1.8,0-3.3-1.5-3.3-3.3l0,0c0-2.8,2.2-5,5-5h11.6c1.8,0,3.3,1.5,3.3,3.3v3.1
	C253.5,392.2,253.3,393.4,253,394.6z"/>
<rect x="236.9" y="409.5" class="st2" width="10" height="7.4"/>
<path class="st3" d="M236.9,412.5c1.5,0.6,3.2,1,5,1c1.8,0,3.4-0.4,5-1v-3.1h-10L236.9,412.5L236.9,412.5z"/>
<path class="st4" d="M254.9,415.8l-8-2.3l-5,3.3l-5-3.3l-8,2.3c-2.1,0.6-3.6,2.6-3.6,4.8v12.1c0,0.9,0.7,1.7,1.7,1.7h29.9
	c0.9,0,1.7-0.7,1.7-1.7v-12.1C258.5,418.3,257,416.4,254.9,415.8z"/>
<polygon class="st2" points="243.5,434.4 240.2,434.4 241.1,416.8 242.7,416.8 "/>
<path class="st5" d="M241.9,411.1L241.9,411.1c-5.5,0-10-4.5-10-10v-1.9c0-0.9,0.4-1.7,1-2.3l3-3c0.6-0.6,1.5-1,2.4-1
	c5.3,0.2,10,1.3,12.6,3.8c0.6,0.6,1,1.5,1,2.4v2.1C251.9,406.7,247.4,411.1,241.9,411.1z"/>
<path class="st2" d="M236.9,399.6c0-1.9,1.6-3.4,3.5-3.3c3.4,0.2,8.3,0.8,11.4,2.2c-0.1-0.7-0.4-1.4-0.9-1.9
	c-2.6-2.5-7.3-3.6-12.6-3.8l0,0v0c-0.9,0-1.8,0.3-2.4,1l-3,3c-0.6,0.6-1,1.5-1,2.3v1.9c0,4.5,3,8.4,7.2,9.6
	c-1.4-1.7-2.2-3.9-2.2-6.2L236.9,399.6L236.9,399.6z"/>
<path class="st6" d="M251.9,425.5c0-1.3,0.5-2.6,1.5-3.5l4.3-4.3c0.6,0.8,0.9,1.8,0.9,2.9v12.1c0,0.9-0.7,1.7-1.7,1.7h-5V425.5
	L251.9,425.5z"/>
<path class="st7" d="M242.7,420.1h-1.7c-0.5,0-0.8-0.4-0.8-0.8v-2.5h3.3v2.5C243.5,419.8,243.2,420.1,242.7,420.1z"/>
<g>
	<path class="st8" d="M241.9,416.8l-2.8,2.2c-0.5,0.4-1.2,0.2-1.5-0.3l-2.5-4.6l1-1.6c0.2-0.3,0.7-0.4,1-0.1L241.9,416.8z"/>
	<path class="st8" d="M241.9,416.8l2.8,2.2c0.5,0.4,1.2,0.2,1.5-0.3l2.5-4.6l-1-1.6c-0.2-0.3-0.7-0.4-1-0.1L241.9,416.8z"/>
</g>
<path class="st0" d="M185.2,410.4c-1.4-3.8-2.5-10.2-2.8-13.6c-0.5-6.4-5.3-11.6-11.8-11.6s-11.4,5.2-11.8,11.6
	c-0.2,3.4-1.4,9.8-2.8,13.6c-0.3,0.8,0,1.7,0.9,2.1c1.5,0.7,4.8,2,8.7,2.6h10.1c3.9-0.5,7.2-1.9,8.7-2.6
	C185.2,412.2,185.6,411.3,185.2,410.4z"/>
<path class="st1" d="M184.4,412.5c0.8-0.4,1.2-1.3,0.9-2.1c-1.4-3.8-2.5-10.2-2.8-13.6c-0.5-6.4-5.3-11.6-11.8-11.6c0,0,0,0,0,0
	c-5,0-6.8,6.8-2.5,9.4c0.3,0.2,0.4,0.2,0.4,0.2l3.8,20.3h3.4C179.6,414.6,182.9,413.2,184.4,412.5z"/>
<path class="st2" d="M182.6,418.4l-5.4-2.7c-1.1-0.6-1.8-1.7-1.8-3l0-5h-10v5c0,1.3-0.7,2.4-1.8,3l-5.4,2.7
	c-1.7,0.8-2.8,2.6-2.8,4.5v9.8c0,0.9,0.7,1.7,1.7,1.7h26.6c0.9,0,1.7-0.7,1.7-1.7v-9.8C185.4,421,184.3,419.3,182.6,418.4z"/>
<path class="st3" d="M170.5,414.4c1.8,0,3.5-0.4,5.1-1c0-0.2-0.1-0.4-0.1-0.6l0-5h-10v5c0,0.2,0,0.4-0.1,0.6
	C166.9,414.1,168.7,414.4,170.5,414.4z"/>
<path class="st4" d="M182.6,418.4l-3.8-1.9c-1.8,2.7-4.9,4.6-8.4,4.6c-3.5,0-6.6-1.8-8.4-4.6l-3.8,1.9c-1.7,0.8-2.8,2.6-2.8,4.5v9.8
	c0,0.9,0.7,1.7,1.7,1.7h26.6c0.9,0,1.7-0.7,1.7-1.7v-9.8C185.4,421,184.3,419.3,182.6,418.4z"/>
<path class="st5" d="M170.5,411.1L170.5,411.1c-5.1,0-9.3-3.8-9.9-8.7c-0.1-0.7,0.2-1.4,0.9-1.7c0.8-0.4,1.9-1,2.9-2
	c1.2-1.1,1.9-2.2,2.3-3c0.3-0.7,1.1-1.1,1.9-0.9c5.8,1.5,9.8,4.5,11.3,5.8c0.4,0.3,0.6,0.8,0.6,1.3
	C180,407.1,175.7,411.1,170.5,411.1z"/>
<path class="st2" d="M179.8,400.6c-1.4-1.2-5.4-4.3-11.3-5.8c-0.8-0.2-1.5,0.2-1.9,0.9c-0.3,0.6-0.8,1.4-1.5,2.2c0,0,0,0,0,0
	c-0.2,0.3-0.5,0.5-0.8,0.8c-1.1,0.9-2.2,1.6-2.9,2c-0.6,0.3-1,1-0.9,1.7c0.6,4.4,4,7.9,8.4,8.6c-2-1.4-3.5-3.2-3.5-6.5v-2.4
	c0.4-0.3,0.8-0.6,1.1-0.9c0.9-0.8,1.7-1.8,2.4-2.8c4.5,1.4,7.5,3.7,8.7,4.7c0.3,0.3,1.1,1,2,1.9c0.4-0.9,0.7-2,0.7-3
	C180.4,401.4,180.2,400.9,179.8,400.6z"/>
<path class="st9" d="M230.9,416.2l-13.9-5.1l-10,3.3l-10-3.3l-13.9,5.1c-2.6,1-4.4,3.5-4.4,6.2v10.3c0,0.9,0.7,1.7,1.7,1.7h53.2
	c0.9,0,1.7-0.7,1.7-1.7v-10.3C235.2,419.6,233.5,417.1,230.9,416.2z"/>
<polygon class="st10" points="205.3,417.8 203.7,434.4 210.3,434.4 208.7,417.8 "/>
<path class="st11" d="M208.7,420h-3.5c-0.6,0-1.2-0.5-1.2-1.2v-4.4h5.8v4.4C209.9,419.5,209.4,420,208.7,420z"/>
<path class="st12" d="M233.5,417.9c1.1,1.2,1.8,2.8,1.8,4.5v10.3c0,0.9-0.7,1.7-1.7,1.7h-8.3v-5.6c0-1.8,0.7-3.5,1.9-4.7
	L233.5,417.9z"/>
<path class="st0" d="M225.3,376.9v-13.9c0-1.8-1.5-3.3-3.3-3.3H202c-7.3,0-13.3,6-13.3,13.3v3.9c0,1.8,0.3,3.6,0.9,5.3l0.6,1.7
	c0.2,0.5,0.3,1,0.3,1.6v0.9h33.2v-0.9c0-0.5,0.1-1.1,0.3-1.6l0.6-1.7C225,380.4,225.3,378.6,225.3,376.9z"/>
<path class="st1" d="M197,366.4c0,3.7,3,6.7,6.7,6.7h0.9l0.5,13.1h18.4v-0.9c0-0.5,0.1-1.1,0.3-1.6l0.6-1.7c0.6-1.7,0.9-3.5,0.9-5.3
	v-13.9c0-1.8-1.5-3.3-3.3-3.3h-18.2C200.1,359.6,197,362.6,197,366.4z"/>
<rect x="197" y="399.5" class="st2" width="19.9" height="15"/>
<path class="st3" d="M197,405.1c2.9,1.7,6.3,2.7,10,2.7s7-1,10-2.7v-5.6H197L197,405.1L197,405.1z"/>
<g>
	<path class="st12" d="M207,414.4l-5.3,5.3c-0.7,0.7-1.9,0.6-2.5-0.2l-5.5-7.2l1.4-3c0.4-0.9,1.5-1.2,2.4-0.7L207,414.4z"/>
	<path class="st12" d="M207,414.4l5.3,5.3c0.7,0.7,1.9,0.6,2.5-0.2l5.5-7.2l-1.4-3c-0.4-0.9-1.5-1.2-2.4-0.7L207,414.4z"/>
</g>
<path class="st5" d="M207,404.5L207,404.5c-9.2,0-16.6-7.4-16.6-16.6v-1.9c0-0.9,0.4-1.7,1-2.3l1.4-1.4c0.6-0.6,1-1.5,1-2.3v-4
	c0-0.8,0.5-1.4,1.3-1.6c3.9-0.9,16.2-3.1,24.5,3c0.5,0.4,0.8,1.1,0.8,1.7v0.9c0,0.9,0.4,1.7,1,2.3l1.4,1.4c0.6,0.6,1,1.5,1,2.3v1.9
	C223.6,397,216.2,404.5,207,404.5z"/>
<path class="st2" d="M219.5,377.2c-5.9-4.3-13.6-4.5-19.1-3.9c-2.3,0.2-4.2,0.6-5.4,0.9c-0.7,0.2-1.3,0.8-1.3,1.6v4
	c0,0.9-0.4,1.7-1,2.3l-1.4,1.4c-0.6,0.6-1,1.5-1,2.3v1.9c0,8.5,6.4,15.5,14.6,16.5c-2.9-3-4.6-7-4.6-11.5v-12.1
	c0-1.7,1.3-3.1,2.9-3.3c4-0.5,11.3-0.8,17,2.4V379C220.3,378.3,220,377.6,219.5,377.2z"/>
<path class="st12" d="M180.5,417.9c-1.1,1.2-1.8,2.8-1.8,4.5v10.3c0,0.9,0.7,1.7,1.7,1.7h8.3v-5.6c0-1.8-0.7-3.5-1.9-4.7
	L180.5,417.9z"/>
</svg>
